<?xml version="1.0" encoding="UTF-8" ?>
<!DOCTYPE svg PUBLIC "-//W3C//DTD SVG 1.1//EN" "http://www.w3.org/Graphics/SVG/1.1/DTD/svg11.dtd">
<svg width="1007pt" height="461pt" viewBox="0 0 1007 461" version="1.1" xmlns="http://www.w3.org/2000/svg">
<path fill="#ffffff" d=" M 0.00 0.00 L 1007.00 0.00 L 1007.00 461.00 L 0.00 461.00 L 0.00 0.00 Z" />
<path fill="#000000" d=" M 180.11 170.60 C 197.14 167.27 214.59 166.78 231.88 167.64 C 245.34 168.49 258.79 170.89 271.48 175.55 C 273.12 174.30 274.49 171.34 276.96 172.32 C 279.47 173.32 278.12 176.39 277.80 178.31 C 281.28 180.23 284.67 182.31 287.82 184.73 C 295.11 183.77 303.48 182.56 309.90 187.04 C 314.92 190.47 314.09 198.15 310.22 202.15 C 306.45 198.07 300.68 196.20 295.23 196.81 C 292.85 197.51 290.46 196.57 288.06 196.74 C 278.69 196.99 269.53 199.37 260.17 199.74 C 259.43 200.09 258.70 200.47 257.99 200.87 C 261.71 200.10 265.50 200.15 269.22 200.96 C 265.41 211.54 261.52 222.11 258.27 232.89 C 257.36 236.48 255.81 240.25 256.98 243.97 C 258.81 247.32 263.46 246.17 265.43 243.59 C 271.20 236.43 274.36 227.45 280.77 220.76 C 287.20 213.68 296.08 207.63 306.02 208.04 C 310.08 207.94 313.08 211.53 314.49 214.96 C 316.28 221.34 315.27 228.09 313.80 234.43 C 318.51 235.48 323.27 232.88 325.64 228.83 C 328.91 223.22 331.59 217.28 334.06 211.28 C 329.67 208.95 325.01 205.32 324.64 199.96 C 323.97 193.25 331.68 187.63 337.89 189.98 C 339.41 190.45 340.47 191.75 341.21 193.10 C 342.79 198.05 341.15 203.19 339.73 207.96 C 345.96 210.23 353.44 214.45 353.51 221.99 C 352.20 230.62 344.19 236.97 343.82 245.83 C 349.76 247.16 353.40 241.66 357.59 238.63 C 363.28 233.06 367.21 225.98 370.57 218.83 C 372.34 213.92 374.33 208.83 378.32 205.27 C 381.47 202.15 386.14 200.49 390.52 201.57 C 393.54 202.57 393.89 206.30 392.92 208.89 C 390.98 214.15 386.93 218.22 382.81 221.87 C 382.70 220.21 382.59 218.56 382.48 216.91 C 381.81 219.91 380.90 222.99 381.54 226.08 C 381.91 229.42 383.46 232.61 383.20 236.02 C 382.28 242.15 382.14 248.43 383.54 254.51 C 379.71 262.90 369.77 267.19 360.91 265.73 C 356.10 265.25 351.98 261.82 350.38 257.30 C 346.05 261.66 340.62 266.50 334.01 265.77 C 328.87 265.14 326.51 259.56 326.31 254.98 C 325.82 246.26 330.46 238.50 334.02 230.88 C 336.18 226.22 339.37 222.00 340.89 217.06 C 341.65 214.94 339.01 214.05 337.80 212.88 C 335.12 218.66 332.36 224.41 329.31 230.00 C 325.54 236.85 318.02 242.00 310.01 241.52 C 302.91 241.21 296.13 234.30 297.46 227.05 C 298.81 222.65 304.32 222.40 307.51 224.93 C 307.35 222.61 307.89 219.75 305.84 218.09 C 301.61 216.23 297.43 219.61 294.78 222.62 C 291.33 227.13 288.01 232.14 287.21 237.88 C 286.84 240.11 287.43 243.22 290.00 243.80 C 293.47 244.82 296.30 242.17 298.90 240.36 C 302.57 242.08 305.79 244.71 307.76 248.30 C 303.52 254.80 297.80 260.61 290.79 264.03 C 285.68 266.14 279.24 267.01 274.46 263.69 C 270.60 261.04 268.88 256.38 268.45 251.89 C 264.74 258.00 259.87 265.34 252.02 265.86 C 243.47 266.50 236.43 258.08 237.38 249.80 C 234.06 255.36 230.30 261.14 224.51 264.39 C 220.74 266.64 215.06 266.56 212.49 262.57 C 209.04 257.29 209.64 250.65 209.76 244.64 C 208.47 248.10 208.03 251.92 205.94 255.05 C 203.63 258.63 200.53 261.78 196.76 263.84 C 193.48 265.46 189.03 265.51 186.28 262.83 C 183.35 260.14 182.93 255.78 183.24 252.04 C 184.09 241.34 189.24 231.65 194.57 222.57 C 197.82 217.73 200.92 212.37 205.98 209.22 C 208.45 208.67 209.53 211.48 208.62 213.38 C 205.88 220.21 202.43 226.84 200.86 234.07 C 200.56 236.62 199.84 239.96 202.10 241.85 C 204.81 242.96 207.06 240.26 208.60 238.39 C 214.65 230.34 218.75 221.04 224.65 212.89 C 225.99 211.16 227.56 208.87 230.08 209.16 C 232.00 209.62 232.36 211.89 231.74 213.48 C 228.93 221.88 225.44 230.16 224.11 238.97 C 224.00 241.11 223.73 243.80 225.58 245.33 C 228.22 247.21 231.48 245.20 233.44 243.27 C 239.66 236.64 243.72 228.39 246.92 219.97 C 249.64 213.27 252.82 206.77 256.13 200.35 C 251.64 200.36 246.46 201.28 242.63 198.32 C 238.93 195.32 237.57 188.58 241.95 185.57 C 243.75 189.41 247.81 191.36 251.96 190.97 C 255.74 190.56 260.16 191.43 263.32 188.84 C 238.89 183.03 213.34 183.11 188.62 187.01 C 188.70 187.28 188.86 187.81 188.94 188.07 C 193.20 188.32 197.37 189.31 201.26 191.07 C 192.28 199.56 183.91 208.91 178.00 219.84 C 171.69 231.11 167.48 244.13 169.26 257.17 C 170.15 264.15 175.01 270.41 181.62 272.89 C 177.92 282.89 165.06 285.86 155.96 281.95 C 150.25 279.48 146.42 273.83 145.13 267.86 C 143.37 261.04 144.63 253.99 145.50 247.15 C 143.00 235.09 134.04 222.38 120.82 221.43 C 118.95 221.47 117.55 219.76 117.57 217.96 C 117.49 212.38 119.66 207.03 122.57 202.37 C 127.35 195.00 134.31 189.38 141.59 184.63 C 153.28 177.32 166.66 173.20 180.11 170.60 Z" />
<path fill="#000000" d=" M 709.40 174.45 C 719.19 169.66 730.10 166.74 741.06 167.30 C 747.55 167.65 754.50 170.30 757.91 176.17 C 760.61 180.44 760.82 185.61 761.26 190.49 C 766.02 195.15 763.29 202.36 761.83 207.88 C 767.96 210.26 775.29 214.54 775.58 221.90 C 774.24 230.00 767.56 236.09 765.79 244.06 C 765.76 247.01 769.49 246.06 771.22 245.20 C 777.60 241.96 782.32 236.23 786.27 230.40 C 791.53 221.50 799.07 213.44 808.86 209.62 C 812.45 208.31 816.37 207.64 820.18 208.22 C 823.92 209.04 826.48 212.52 827.31 216.11 C 828.66 222.21 827.77 228.51 826.38 234.51 C 830.20 235.16 834.26 233.78 836.67 230.70 C 838.36 228.95 839.37 226.13 842.07 225.76 C 842.88 226.56 843.06 227.45 842.63 228.44 C 839.19 235.92 831.48 241.80 823.03 241.54 C 815.88 241.50 809.24 235.02 809.75 227.77 C 810.65 222.94 816.67 222.09 820.08 224.94 C 819.88 222.35 820.45 218.21 816.99 217.63 C 812.62 217.03 809.05 220.52 806.48 223.62 C 803.23 228.20 799.94 233.23 799.63 239.02 C 799.49 241.09 800.51 243.70 802.89 243.87 C 806.24 244.69 808.89 242.05 811.42 240.35 C 815.09 242.12 818.61 244.59 820.22 248.50 C 816.12 254.52 810.86 259.93 804.46 263.48 C 798.64 266.34 790.57 267.41 785.53 262.48 C 781.19 258.51 780.77 252.26 780.78 246.76 C 777.04 252.51 772.55 257.85 767.09 262.04 C 763.53 264.70 758.93 266.87 754.44 265.41 C 749.98 263.68 748.34 258.40 748.34 254.03 C 748.18 245.63 752.57 238.23 756.03 230.88 C 758.24 226.23 761.40 221.98 762.92 217.04 C 763.64 214.95 761.05 214.02 759.82 212.92 C 757.07 218.74 754.48 224.69 751.08 230.17 C 750.32 231.97 747.42 231.12 747.72 229.18 C 750.46 223.32 753.81 217.69 755.80 211.51 L 754.87 209.92 C 745.80 223.74 732.72 235.27 717.17 241.18 C 710.03 243.95 702.19 244.58 694.67 243.21 C 697.87 244.68 701.26 245.71 704.76 246.24 C 703.52 257.30 703.41 269.03 708.66 279.17 C 705.03 280.65 701.07 281.18 697.21 280.40 C 697.06 281.16 696.78 282.68 696.64 283.44 C 694.60 282.58 693.38 279.11 690.85 280.32 C 689.51 282.24 690.13 284.70 689.95 286.89 C 691.52 286.93 693.09 287.05 694.67 287.25 C 693.18 287.88 691.57 288.00 690.00 288.18 C 690.17 291.91 689.56 295.74 690.40 299.40 C 691.28 299.72 693.04 300.36 693.92 300.68 C 690.74 301.26 687.49 300.94 684.29 301.00 C 685.27 300.39 686.23 299.74 687.16 299.05 C 687.95 295.45 687.36 291.71 687.56 288.06 C 686.86 288.04 685.48 287.99 684.78 287.97 L 684.72 287.03 C 685.39 287.02 686.74 286.98 687.41 286.96 C 687.04 282.94 689.43 278.78 693.85 278.71 C 686.83 273.63 686.08 264.04 686.77 256.12 C 687.02 249.85 690.40 244.27 690.84 238.05 C 695.87 232.10 698.59 224.60 703.67 218.66 C 707.45 214.22 711.11 208.69 717.06 207.17 C 719.28 208.97 717.36 211.20 716.39 213.09 C 712.45 220.23 709.04 227.73 706.93 235.63 C 711.76 234.68 716.04 232.00 719.56 228.63 C 726.71 221.84 732.01 213.34 736.22 204.48 C 739.20 197.69 742.16 190.51 741.88 182.95 C 741.86 180.60 740.73 177.65 738.12 177.24 C 733.86 176.60 729.55 178.05 725.74 179.86 C 711.65 186.91 700.85 199.07 692.40 212.12 C 688.90 217.74 685.62 223.66 684.16 230.17 C 683.67 232.09 683.43 234.07 682.77 235.93 C 681.76 236.24 680.74 236.47 679.72 236.63 C 676.48 235.90 673.44 234.38 671.13 231.97 C 669.09 228.96 667.93 225.44 667.66 221.82 C 667.67 219.93 667.85 218.04 668.08 216.17 C 668.92 213.36 670.07 210.65 671.45 208.06 C 680.16 193.26 694.10 181.95 709.40 174.45 Z" />
<path fill="#ffc000" d=" M 408.32 189.29 C 418.86 178.39 432.50 169.44 447.95 168.17 C 456.23 167.61 465.71 170.50 469.62 178.43 C 474.48 188.73 473.42 200.83 470.27 211.49 C 464.97 228.86 455.58 244.95 443.41 258.41 C 436.37 265.95 428.08 272.76 418.23 276.18 C 410.07 278.83 400.28 277.95 393.56 272.27 C 388.10 267.89 384.99 261.24 383.54 254.51 C 382.14 248.43 382.28 242.15 383.20 236.02 C 386.57 218.36 396.01 202.22 408.32 189.29 Z" />
<path fill="#ffc000" d=" M 546.46 191.63 C 549.81 186.25 553.17 180.76 557.84 176.41 C 558.61 176.67 560.14 177.17 560.90 177.42 C 560.94 179.06 561.07 180.76 560.49 182.33 C 554.51 199.11 547.86 215.67 542.75 232.76 C 541.83 236.26 540.49 239.98 541.47 243.62 C 542.39 246.64 546.57 246.68 548.61 244.79 C 551.77 242.08 553.61 238.24 555.81 234.78 C 560.79 226.99 563.52 217.77 569.98 210.95 C 571.09 209.73 572.91 208.43 574.55 209.58 C 576.49 210.79 575.47 213.26 574.93 214.96 C 572.25 222.51 569.31 230.05 567.91 237.98 C 567.71 240.44 567.18 243.76 569.44 245.48 C 572.10 247.16 575.27 245.12 576.86 242.90 C 583.34 233.82 587.18 223.08 594.26 214.40 C 595.93 212.46 597.51 210.05 600.06 209.24 C 602.13 208.61 603.80 211.08 602.94 212.92 C 600.85 218.67 598.05 224.15 596.27 230.02 C 601.37 223.00 607.22 216.35 614.61 211.69 C 618.60 209.21 623.37 207.52 628.12 208.20 C 631.59 208.77 634.29 212.42 633.33 215.92 C 630.38 225.57 623.08 233.33 620.58 243.14 C 619.74 244.93 621.11 246.52 623.01 246.01 C 628.08 244.86 631.79 240.83 635.24 237.22 C 641.01 231.12 644.21 223.07 650.33 217.28 C 655.82 211.64 663.24 206.99 671.45 208.06 C 670.07 210.65 668.92 213.36 668.08 216.17 C 663.14 219.81 659.21 224.70 656.53 230.21 C 661.56 229.59 664.91 225.69 667.66 221.82 C 667.93 225.44 669.09 228.96 671.13 231.97 C 668.33 235.21 665.47 239.07 661.01 239.97 C 658.07 240.67 655.29 239.14 652.63 238.11 C 653.09 240.74 652.75 244.02 655.09 245.88 C 657.72 247.96 661.36 248.32 664.52 247.34 C 670.63 245.57 675.42 241.12 679.72 236.63 C 680.74 236.47 681.76 236.24 682.77 235.93 C 683.43 234.07 683.67 232.09 684.16 230.17 C 685.05 228.21 686.51 225.06 689.14 226.65 C 689.30 230.58 686.88 233.91 685.39 237.37 C 680.72 247.00 675.20 257.17 665.44 262.48 C 658.51 266.24 649.05 267.74 642.42 262.57 C 637.18 258.82 635.23 252.07 635.76 245.87 C 631.00 252.93 625.57 259.97 618.02 264.20 C 614.43 266.22 609.39 266.77 606.16 263.80 C 602.66 260.67 602.21 255.55 602.63 251.16 C 603.45 244.80 606.44 239.00 609.25 233.32 C 611.87 227.93 615.69 223.11 617.39 217.29 C 615.43 217.81 613.41 218.38 611.95 219.86 C 605.66 225.54 601.08 232.87 597.40 240.43 C 594.35 247.26 591.03 255.10 593.93 262.55 C 590.50 265.10 585.34 266.06 581.77 263.25 C 579.04 261.31 578.26 257.90 577.58 254.83 C 574.83 258.60 572.05 262.67 567.75 264.79 C 564.74 266.28 560.64 266.45 558.10 263.97 C 554.66 260.69 553.86 255.73 553.36 251.24 C 550.29 256.60 546.55 262.06 540.86 264.89 C 533.53 268.18 524.29 263.02 522.40 255.43 C 521.52 252.03 522.22 248.51 522.58 245.09 C 517.46 252.32 512.13 259.95 504.13 264.23 C 500.35 266.36 494.86 266.78 491.78 263.24 C 488.27 259.06 488.21 253.02 489.38 247.95 C 491.81 239.33 496.31 231.49 500.79 223.80 C 501.98 221.75 502.84 219.52 503.50 217.25 C 501.76 217.79 499.92 218.26 498.55 219.53 C 492.35 224.86 487.94 231.91 484.21 239.10 C 480.73 246.43 477.24 254.81 480.03 262.95 C 477.08 264.35 473.69 265.66 470.42 264.55 C 466.83 263.35 464.63 259.74 464.13 256.12 C 462.75 248.42 465.73 240.86 468.81 233.95 C 473.00 225.51 477.36 216.81 484.32 210.29 C 485.92 208.29 489.57 209.16 489.37 211.99 C 487.59 217.95 484.29 223.36 482.84 229.44 C 488.98 221.40 495.97 213.28 505.54 209.32 C 509.45 208.01 514.62 206.85 517.88 210.13 C 520.10 212.08 520.05 215.41 518.92 217.93 C 515.84 225.26 511.23 231.82 508.01 239.08 C 506.97 241.28 506.73 243.74 506.66 246.15 C 510.80 246.26 514.41 244.03 517.34 241.31 C 522.17 236.72 526.94 231.63 529.31 225.28 C 534.10 213.62 540.08 202.48 546.46 191.63 Z" />
<path fill="#ffc000" d=" M 584.23 177.24 C 587.40 175.96 592.62 176.31 593.74 180.20 C 594.74 183.91 592.64 187.53 590.72 190.56 C 587.19 195.47 583.48 200.72 577.98 203.55 C 576.52 204.55 574.87 203.70 574.69 201.98 C 573.64 195.63 575.96 189.28 578.67 183.63 C 580.00 181.14 581.66 178.59 584.23 177.24 Z" />
<path fill="#ffffff" d=" M 442.99 179.93 C 445.26 178.69 448.07 177.50 450.66 178.39 C 453.28 180.32 453.31 183.96 453.52 186.92 C 453.39 197.83 450.17 208.39 446.98 218.72 C 442.66 218.18 438.15 217.19 434.83 214.19 C 429.57 209.88 428.34 202.10 430.54 195.90 C 432.87 189.47 437.13 183.56 442.99 179.93 Z" />
<path fill="#ffffff" d=" M 125.57 216.88 C 142.42 201.71 163.71 192.17 185.79 187.59 C 186.35 187.98 186.90 188.37 187.46 188.77 C 185.53 189.65 183.79 190.86 182.15 192.20 C 169.02 202.68 157.87 215.92 150.79 231.22 C 144.47 223.56 135.26 218.70 125.57 216.88 Z" />
<path fill="#ffffff" d=" M 409.53 204.02 C 408.52 212.43 410.00 221.68 415.74 228.21 C 421.53 234.55 431.14 235.16 438.95 232.90 C 444.28 231.59 448.43 227.86 452.08 223.97 C 449.22 229.01 444.98 232.96 440.14 236.02 C 435.01 245.76 429.92 255.99 421.46 263.33 C 417.95 266.39 413.15 268.81 408.42 267.50 C 404.20 266.01 402.61 261.15 402.36 257.07 C 402.07 245.82 404.43 234.66 407.89 224.00 C 408.95 221.40 407.79 218.69 407.67 216.04 C 407.25 211.94 408.45 207.93 409.53 204.02 Z" />
<path fill="#ffffff" d=" M 656.53 230.21 C 659.21 224.70 663.14 219.81 668.08 216.17 C 667.85 218.04 667.67 219.93 667.66 221.82 C 664.91 225.69 661.56 229.59 656.53 230.21 Z" />
<path fill="#ffffff" d=" M 369.72 229.15 C 370.85 233.85 372.46 239.23 369.79 243.70 C 367.54 247.05 363.18 246.49 359.73 246.02 C 362.92 240.31 366.65 234.93 369.72 229.15 Z" />
<path fill="#ffffff" d=" M 661.01 239.97 C 665.47 239.07 668.33 235.21 671.13 231.97 C 673.44 234.38 676.48 235.90 679.72 236.63 C 675.42 241.12 670.63 245.57 664.52 247.34 C 661.36 248.32 657.72 247.96 655.09 245.88 C 652.75 244.02 653.09 240.74 652.63 238.11 C 655.29 239.14 658.07 240.67 661.01 239.97 Z" />
<path fill="#000000" d=" M 195.16 280.67 C 197.17 279.53 199.45 279.13 201.71 278.82 C 201.73 283.53 201.74 288.24 201.69 292.96 C 203.09 291.54 204.50 290.13 205.92 288.72 C 205.44 288.29 204.47 287.43 203.99 287.00 C 209.08 287.00 214.16 287.03 219.25 286.98 C 218.53 287.84 216.38 288.37 217.19 289.85 C 218.06 292.70 219.14 295.47 220.24 298.24 C 221.15 295.03 222.67 291.92 222.98 288.59 C 222.50 288.17 221.55 287.34 221.08 286.93 C 226.42 287.19 231.76 287.65 237.10 287.05 C 242.49 287.44 243.59 295.01 240.55 298.59 C 238.71 301.37 235.03 301.16 232.14 300.73 C 232.41 303.53 231.88 307.02 235.37 307.96 C 232.24 308.01 229.10 307.98 225.96 308.02 C 226.86 307.09 229.02 306.82 228.74 305.15 C 228.85 299.88 228.68 294.61 228.81 289.34 C 228.11 289.07 226.71 288.54 226.01 288.28 C 223.65 293.60 221.73 299.11 219.36 304.43 C 218.41 306.84 215.82 308.69 213.16 307.88 C 211.93 307.35 211.63 306.47 212.27 305.24 C 214.02 304.35 215.41 305.88 216.83 306.68 C 217.42 305.07 218.03 303.47 218.65 301.88 C 216.61 297.42 215.09 292.68 212.51 288.49 C 209.12 286.88 206.60 290.74 204.14 292.43 C 206.86 295.52 209.13 299.23 213.03 301.00 C 210.39 301.00 207.74 301.08 205.11 300.84 C 205.81 297.78 202.97 295.72 201.39 293.51 C 201.52 295.49 201.70 297.48 201.88 299.47 L 203.91 300.12 C 203.89 300.31 203.85 300.68 203.83 300.86 C 201.00 301.17 198.15 300.95 195.31 301.01 C 196.21 300.38 197.09 299.73 197.94 299.04 C 198.10 293.03 197.99 287.01 197.95 280.99 C 197.26 280.91 195.86 280.75 195.16 280.67 Z" />
<path fill="#000000" d=" M 314.49 280.23 C 316.31 279.73 318.15 279.28 320.00 278.82 C 320.04 285.23 319.93 291.65 320.02 298.06 C 319.66 299.68 321.58 300.07 322.42 301.00 C 319.87 301.00 317.32 301.00 314.77 301.01 C 315.60 300.05 317.56 299.61 317.26 298.03 C 317.19 292.42 317.55 286.78 317.06 281.19 C 316.41 280.95 315.13 280.47 314.49 280.23 Z" />
<path fill="#000000" d=" M 342.89 280.19 C 344.74 279.73 346.59 279.28 348.46 278.87 C 348.47 282.19 348.49 285.52 348.39 288.84 C 350.46 287.52 353.73 285.79 355.72 288.17 C 357.45 291.54 356.48 295.57 356.72 299.22 C 357.39 299.63 358.75 300.45 359.43 300.87 C 354.00 301.07 348.57 300.83 343.15 301.01 C 343.79 300.56 345.08 299.67 345.72 299.22 C 345.78 293.18 345.81 287.14 345.71 281.11 C 345.00 280.88 343.60 280.42 342.89 280.19 Z" />
<path fill="#000000" d=" M 516.16 280.41 C 517.97 279.77 519.83 279.28 521.71 278.80 C 521.73 282.16 521.74 285.51 521.68 288.87 C 523.68 287.69 526.26 285.98 528.52 287.67 C 532.14 291.39 527.32 298.34 532.38 301.01 C 529.91 301.00 527.45 301.00 524.99 301.00 L 525.01 300.35 C 525.53 300.14 526.58 299.71 527.11 299.50 C 527.27 295.79 527.78 291.88 526.69 288.28 C 524.85 287.40 523.20 288.63 521.71 289.56 C 521.72 292.78 521.73 296.00 521.71 299.23 C 522.71 299.75 523.68 300.34 524.61 301.00 C 521.94 301.01 519.28 301.01 516.62 301.00 C 517.39 300.35 518.15 299.69 518.88 298.99 C 519.14 293.01 519.00 287.00 518.91 281.01 C 518.22 280.86 516.85 280.56 516.16 280.41 Z" />
<path fill="#000000" d=" M 618.61 287.01 C 618.57 283.82 619.67 280.09 623.03 279.00 C 625.28 278.56 629.74 280.08 627.98 283.05 C 625.76 282.80 624.69 280.32 622.83 279.30 C 620.95 281.48 621.17 284.32 621.19 287.00 C 622.15 287.00 624.06 287.00 625.01 287.00 L 625.00 287.99 C 623.73 288.00 622.48 288.00 621.23 288.01 C 621.28 291.40 621.09 294.81 621.33 298.20 C 621.22 300.00 623.30 299.97 624.52 300.35 L 624.52 301.00 C 621.68 301.00 618.84 301.00 616.00 301.00 L 616.00 300.40 C 617.10 299.91 618.72 299.50 618.66 297.96 C 618.91 294.65 618.71 291.33 618.77 288.02 C 618.08 288.01 616.69 288.00 616.00 287.99 L 616.00 287.00 C 616.65 287.00 617.95 287.01 618.61 287.01 Z" />
<path fill="#000000" d=" M 181.14 287.77 C 179.47 285.10 181.20 281.51 184.01 280.50 C 187.26 278.99 190.76 281.54 194.01 279.97 C 194.01 282.49 194.03 285.01 193.88 287.53 C 191.37 286.29 191.87 282.52 189.09 281.49 C 186.77 279.99 183.28 282.15 183.99 284.97 C 186.71 288.82 192.25 289.29 194.86 293.27 C 196.30 296.20 194.25 299.82 191.20 300.57 C 187.77 302.01 184.15 299.45 180.77 301.01 C 180.77 298.74 180.68 296.47 180.81 294.21 C 181.06 294.14 181.56 293.99 181.81 293.92 C 182.89 295.95 183.35 298.66 185.84 299.49 C 188.57 301.41 193.22 298.12 191.06 295.00 C 188.35 291.86 183.61 291.20 181.14 287.77 Z" />
<path fill="#000000" d=" M 263.99 280.00 C 269.42 280.00 274.85 280.00 280.28 280.00 C 280.23 281.77 280.20 283.56 280.07 285.34 C 279.53 283.96 279.00 282.58 278.47 281.22 C 275.65 280.97 272.82 280.97 270.00 280.99 C 270.00 283.99 270.00 287.00 270.00 290.00 C 272.02 289.99 274.06 290.08 276.08 289.90 C 277.40 289.37 277.76 287.81 278.54 286.74 C 278.45 289.25 278.45 291.77 278.53 294.29 C 277.76 293.21 277.40 291.63 276.09 291.10 C 274.06 290.91 272.02 291.00 270.00 291.00 C 269.99 293.96 269.98 296.93 270.10 299.90 C 272.74 299.95 275.44 300.25 278.06 299.74 C 279.95 298.68 280.77 296.49 282.11 294.89 C 281.55 296.95 280.86 298.97 280.20 301.00 C 274.79 301.00 269.39 301.00 263.99 301.00 L 264.00 300.31 C 265.13 299.80 267.36 299.93 266.97 298.05 C 266.93 292.51 267.28 286.94 266.76 281.43 C 266.07 281.25 264.69 280.90 264.00 280.73 L 263.99 280.00 Z" />
<path fill="#000000" d=" M 325.76 280.70 C 326.65 279.28 328.98 280.05 328.43 281.83 C 328.38 284.28 324.32 282.54 325.76 280.70 Z" />
<path fill="#000000" d=" M 366.84 280.00 C 370.23 279.99 373.62 280.00 377.01 280.00 L 377.00 280.72 C 375.62 281.12 373.58 281.19 373.57 283.09 C 373.41 288.68 373.26 294.31 373.75 299.89 C 376.14 299.97 378.56 300.16 380.95 299.85 C 383.50 299.53 384.33 296.73 385.78 295.00 C 385.11 296.99 384.44 298.99 383.79 301.00 C 378.13 301.00 372.48 301.00 366.82 301.00 C 368.03 300.41 369.22 299.78 370.39 299.12 C 370.63 293.38 370.68 287.59 370.37 281.86 C 369.21 281.21 368.03 280.59 366.84 280.00 Z" />
<path fill="#000000" d=" M 478.16 281.04 C 479.11 280.59 480.08 280.18 481.08 279.83 C 481.65 280.93 482.14 282.21 480.93 283.11 C 479.58 283.15 478.94 281.87 478.16 281.04 Z" />
<path fill="#000000" d=" M 556.22 295.69 C 553.15 289.61 556.79 280.98 563.88 280.15 C 567.00 278.71 570.57 283.09 573.00 279.91 C 573.10 282.41 573.27 284.91 573.43 287.41 C 572.13 285.32 571.40 282.55 568.90 281.56 C 565.87 280.20 561.78 281.15 560.17 284.21 C 558.36 287.66 558.21 291.94 559.50 295.58 C 560.93 299.62 566.35 301.25 569.92 299.06 C 571.54 297.80 572.74 296.10 574.28 294.74 C 572.98 297.12 571.23 299.54 568.55 300.43 C 564.03 302.15 558.36 300.07 556.22 295.69 Z" />
<path fill="#000000" d=" M 767.17 280.00 C 770.62 279.99 774.07 279.97 777.52 280.02 C 776.26 280.67 774.97 281.26 773.71 281.88 C 773.71 284.59 773.72 287.29 773.72 290.00 C 777.00 290.00 780.28 290.01 783.56 289.97 C 783.48 287.30 783.76 284.59 783.28 281.96 C 782.16 281.26 781.03 280.61 779.89 280.00 C 783.33 279.99 786.79 279.95 790.24 280.02 C 789.00 280.64 787.75 281.21 786.49 281.73 C 786.55 287.52 786.24 293.34 786.62 299.12 C 787.76 299.77 788.94 300.40 790.14 301.00 C 786.71 301.00 783.30 301.00 779.88 301.00 C 781.01 300.42 782.12 299.79 783.21 299.12 C 783.79 296.46 783.47 293.71 783.55 291.02 C 780.27 290.99 776.99 291.00 773.72 291.00 C 773.72 293.71 773.71 296.42 773.72 299.13 C 774.99 299.74 776.27 300.33 777.54 300.98 C 774.08 301.04 770.63 301.00 767.19 300.99 C 768.31 300.27 769.59 299.77 770.64 298.92 C 770.84 293.30 770.88 287.65 770.62 282.03 C 769.54 281.24 768.29 280.69 767.17 280.00 Z" />
<path fill="#000000" d=" M 507.83 288.03 C 510.16 286.39 511.65 283.96 512.99 281.51 C 513.00 283.34 513.00 285.17 513.01 287.00 C 513.81 287.00 515.42 287.00 516.22 287.00 L 516.25 288.00 C 515.43 288.00 513.81 288.00 513.00 288.00 C 513.59 292.05 511.66 296.96 514.17 300.41 C 515.08 299.53 516.02 298.67 516.99 297.84 C 516.02 300.06 512.98 302.41 510.90 300.03 C 509.61 296.20 510.54 291.98 510.29 288.00 C 509.67 288.01 508.45 288.02 507.83 288.03 Z" />
<path fill="#000000" d=" M 652.01 287.59 C 653.85 285.90 655.17 283.78 656.46 281.66 C 656.46 283.34 656.44 285.02 656.42 286.70 C 657.85 286.94 659.26 287.28 660.66 287.71 C 659.60 287.83 657.49 288.06 656.43 288.18 C 656.54 291.84 656.29 295.52 656.58 299.18 C 657.40 301.21 659.39 298.49 660.51 298.09 C 659.19 300.07 656.07 302.51 654.19 299.77 C 653.28 295.78 654.00 291.63 653.70 287.58 C 652.38 288.01 651.46 288.98 650.70 290.08 C 649.42 289.19 648.15 288.13 646.54 287.95 C 646.26 291.63 645.91 295.39 646.47 299.05 C 647.39 299.75 648.36 300.40 649.37 301.01 C 646.60 300.98 643.84 301.01 641.09 300.99 C 641.67 300.50 642.84 299.54 643.43 299.06 C 643.62 295.78 643.71 292.47 643.32 289.21 C 642.69 288.91 641.41 288.33 640.77 288.04 C 642.82 287.81 644.96 286.68 646.98 287.69 C 648.64 287.21 650.35 286.92 652.01 287.59 Z" />
<path fill="#000000" d=" M 246.85 300.42 C 241.14 297.91 242.37 287.58 248.83 287.02 C 252.69 286.10 256.13 289.14 256.28 292.96 C 252.92 293.02 249.57 292.96 246.21 293.08 C 246.60 295.88 247.58 299.61 250.93 300.01 C 253.44 299.63 253.95 296.45 256.21 295.54 C 255.94 300.05 250.63 302.35 246.85 300.42 Z" />
<path fill="#000000" d=" M 282.09 288.42 C 283.93 287.78 285.82 287.28 287.72 286.80 L 287.66 288.67 C 289.88 287.57 292.94 285.84 295.03 288.14 C 296.73 291.51 295.64 295.47 296.09 299.09 C 296.83 299.75 297.60 300.38 298.40 301.00 C 295.93 301.00 293.46 301.00 291.00 301.00 L 291.00 300.37 C 291.51 300.15 292.52 299.73 293.02 299.52 C 293.39 295.84 293.69 291.95 292.74 288.35 C 290.93 287.30 289.25 288.71 287.71 289.56 C 287.83 292.79 287.42 296.09 287.96 299.30 C 288.59 299.72 289.87 300.57 290.51 301.00 C 287.87 301.01 285.24 301.00 282.61 301.00 C 283.41 300.38 284.18 299.73 284.92 299.04 C 285.14 295.70 284.97 292.35 284.94 289.01 C 284.23 288.86 282.80 288.57 282.09 288.42 Z" />
<path fill="#000000" d=" M 301.70 288.66 C 305.27 285.31 310.18 288.49 314.36 288.32 C 313.25 288.68 312.13 288.99 311.00 289.26 C 311.74 291.67 311.59 294.80 309.07 296.12 C 306.93 297.94 302.35 295.29 302.48 299.36 C 305.74 300.75 309.77 299.15 312.78 301.32 C 313.77 302.81 313.17 304.74 311.84 305.81 C 309.00 308.09 304.89 308.63 301.53 307.25 C 300.54 306.76 299.04 306.14 299.18 304.80 C 299.60 303.31 300.79 302.23 301.68 301.01 C 299.74 299.37 301.10 297.74 302.44 296.35 C 300.38 294.35 299.34 290.86 301.70 288.66 Z" />
<path fill="#000000" d=" M 322.79 288.27 C 324.67 287.75 326.55 287.27 328.45 286.82 C 328.46 291.01 328.47 295.20 328.45 299.39 C 329.13 299.79 330.49 300.59 331.16 300.99 C 328.48 301.01 325.80 301.01 323.12 300.99 C 323.78 300.58 325.10 299.76 325.75 299.35 C 325.77 295.91 325.79 292.48 325.70 289.05 C 324.97 288.85 323.52 288.46 322.79 288.27 Z" />
<path fill="#000000" d=" M 332.90 289.91 C 333.96 286.10 338.35 287.18 341.30 287.53 C 341.26 289.06 341.23 290.60 341.22 292.14 C 340.31 290.68 339.77 288.79 338.09 288.04 C 336.28 287.44 335.11 288.73 334.09 290.00 C 335.93 291.96 338.51 292.80 340.73 294.19 C 342.91 295.34 342.75 298.72 340.80 300.00 C 338.43 301.77 335.38 300.47 332.70 300.53 C 332.74 298.94 332.77 297.35 332.83 295.77 C 334.18 298.35 336.27 300.84 339.54 299.85 C 339.70 299.12 340.00 297.66 340.16 296.92 C 337.65 294.79 332.05 294.18 332.90 289.91 Z" />
<path fill="#000000" d=" M 391.80 300.79 C 385.65 299.24 385.69 288.87 391.77 287.28 C 395.62 285.71 399.13 289.25 399.28 292.96 C 395.93 293.02 392.57 292.97 389.23 293.04 C 389.57 295.90 390.62 299.74 394.08 299.99 C 396.50 300.48 397.76 297.97 398.67 296.21 L 399.35 296.52 C 397.96 299.28 395.17 302.00 391.80 300.79 Z" />
<path fill="#000000" d=" M 402.08 292.75 C 400.52 290.56 402.32 287.34 404.88 287.09 C 406.59 287.11 408.29 287.41 410.01 287.41 C 410.01 289.06 410.00 290.72 410.01 292.38 C 409.08 290.94 408.72 288.84 407.00 288.13 C 405.13 287.34 403.88 288.76 402.76 290.02 C 405.09 293.07 411.66 293.02 410.96 297.86 C 409.79 302.13 404.66 300.74 401.41 300.47 C 401.49 298.89 401.53 297.32 401.58 295.75 C 402.82 297.36 403.61 299.93 406.03 299.98 C 407.85 300.40 409.24 298.86 408.82 297.08 C 406.81 295.27 404.09 294.54 402.08 292.75 Z" />
<path fill="#000000" d=" M 413.57 289.96 C 414.70 286.08 419.07 287.28 422.07 287.41 C 422.00 289.05 421.96 290.70 421.88 292.35 C 420.98 290.94 420.76 288.84 419.05 288.13 C 417.16 287.33 415.89 288.75 414.75 290.02 C 417.08 293.07 423.72 293.03 422.95 297.91 C 421.74 302.14 416.62 300.72 413.38 300.47 C 413.50 298.87 413.54 297.28 413.64 295.69 C 414.84 297.69 416.09 300.53 418.97 300.00 C 420.80 300.05 421.72 297.02 419.90 296.36 C 417.61 294.43 412.82 293.89 413.57 289.96 Z" />
<path fill="#000000" d=" M 429.44 287.62 C 434.48 284.88 440.76 290.77 438.60 296.01 C 437.50 300.61 431.13 302.65 427.66 299.36 C 423.83 296.28 424.92 289.46 429.44 287.62 Z" />
<path fill="#000000" d=" M 439.72 288.07 C 441.66 287.71 443.65 287.01 445.63 287.54 C 447.80 287.97 450.20 286.12 452.15 287.77 C 455.58 291.49 450.72 298.45 455.90 301.01 C 450.60 300.93 445.30 300.93 440.00 301.02 C 440.84 300.10 442.70 299.70 442.50 298.15 C 442.59 295.22 442.65 292.28 442.45 289.35 C 441.77 289.03 440.40 288.39 439.72 288.07 Z" />
<path fill="#000000" d=" M 457.81 292.80 C 456.50 290.68 457.75 287.89 460.04 287.17 C 461.96 286.91 463.89 287.51 465.83 287.46 C 465.77 289.09 465.77 290.71 465.79 292.34 C 464.73 290.78 464.30 288.19 462.05 288.00 C 460.43 287.78 459.37 288.47 458.88 290.05 C 460.66 292.82 464.58 292.78 466.48 295.42 C 467.11 297.03 466.75 299.24 465.12 300.12 C 462.72 301.75 459.78 300.38 457.13 300.57 C 457.21 298.93 457.22 297.29 457.23 295.66 C 458.56 297.29 459.47 300.07 462.02 300.00 C 463.67 300.49 465.42 298.24 464.25 296.84 C 462.35 295.12 459.76 294.45 457.81 292.80 Z" />
<path fill="#000000" d=" M 476.28 288.16 C 478.09 287.72 479.90 287.27 481.72 286.84 C 481.78 290.94 481.57 295.05 481.82 299.15 C 482.42 299.62 483.64 300.55 484.25 301.02 C 481.68 300.99 479.13 301.00 476.58 301.00 C 477.13 300.57 478.24 299.72 478.80 299.29 C 479.20 295.98 479.11 292.57 478.81 289.25 C 478.18 288.98 476.91 288.43 476.28 288.16 Z" />
<path fill="#000000" d=" M 483.77 288.26 C 485.78 288.13 489.13 285.52 489.86 288.50 C 491.85 287.50 494.32 286.10 496.40 287.76 C 499.80 291.52 494.99 298.55 500.26 301.04 C 494.95 300.87 489.64 300.95 484.33 301.03 C 485.18 300.42 485.96 299.73 486.67 298.98 C 486.91 295.66 486.73 292.34 486.72 289.03 C 485.98 288.84 484.51 288.46 483.77 288.26 Z" />
<path fill="#000000" d=" M 534.44 290.11 C 536.01 286.90 540.97 285.81 543.56 288.43 C 544.95 289.51 545.04 291.39 545.52 292.95 C 542.17 293.03 538.82 292.97 535.48 293.04 C 535.86 295.84 536.72 299.47 540.07 299.97 C 542.88 300.62 544.02 297.51 545.59 295.86 C 544.75 299.20 541.33 302.11 537.77 300.71 C 533.48 299.40 532.40 293.68 534.44 290.11 Z" />
<path fill="#000000" d=" M 579.54 287.79 C 584.19 284.94 590.57 289.70 589.36 294.96 C 588.94 299.93 582.35 302.91 578.50 299.60 C 574.42 296.75 575.20 289.99 579.54 287.79 Z" />
<path fill="#000000" d=" M 590.35 288.14 C 593.10 287.16 595.97 286.89 598.43 288.75 C 597.77 289.08 596.46 289.75 595.80 290.08 C 595.63 293.04 595.61 296.02 595.82 298.99 C 596.66 299.69 597.53 300.36 598.43 301.00 C 595.81 301.00 593.19 301.01 590.57 301.00 C 591.42 300.06 593.33 299.68 592.97 298.06 C 593.04 295.12 593.14 292.17 592.85 289.25 C 592.22 288.97 590.97 288.41 590.35 288.14 Z" />
<path fill="#000000" d=" M 598.72 287.98 C 598.77 287.67 598.87 287.04 598.92 286.73 C 600.94 286.85 602.88 287.47 604.47 288.76 C 606.58 287.37 609.68 285.93 611.80 288.13 C 613.58 291.44 612.28 295.41 612.82 298.99 C 613.66 299.69 614.53 300.36 615.44 301.00 C 612.82 301.00 610.20 301.01 607.59 301.00 C 608.45 300.35 609.28 299.67 610.09 298.96 C 610.48 295.39 610.44 291.74 609.71 288.22 C 607.64 287.68 605.82 288.48 604.23 289.76 C 604.26 292.86 604.11 295.97 604.32 299.08 C 604.98 299.56 606.31 300.53 606.97 301.01 C 604.25 301.00 601.53 301.01 598.82 300.99 C 599.54 300.57 600.97 299.72 601.68 299.29 C 601.28 295.70 603.03 291.18 600.49 288.22 L 598.72 287.98 Z" />
<path fill="#000000" d=" M 630.43 287.62 C 635.11 285.08 641.12 290.04 639.83 295.10 C 639.28 299.84 633.22 302.72 629.31 299.87 C 624.83 297.09 625.60 289.57 630.43 287.62 Z" />
<path fill="#000000" d=" M 673.41 287.40 C 678.02 285.44 683.47 290.10 682.36 294.97 C 681.92 299.92 675.38 302.90 671.53 299.62 C 667.09 296.58 668.42 289.08 673.41 287.40 Z" />
<path fill="#000000" d=" M 701.70 287.00 C 704.09 286.99 706.48 287.00 708.89 286.99 C 708.34 287.51 707.24 288.56 706.69 289.08 C 707.71 292.30 709.26 295.31 710.55 298.42 C 711.73 295.20 712.95 291.99 714.07 288.74 C 713.46 288.31 712.24 287.44 711.63 287.01 C 713.49 286.99 715.35 286.99 717.23 286.99 C 712.70 292.67 711.65 300.23 708.09 306.48 C 708.29 304.19 709.88 301.74 708.46 299.56 C 706.36 295.30 705.21 290.40 701.70 287.00 Z" />
<path fill="#000000" d=" M 722.46 287.72 C 727.13 284.98 733.40 289.90 732.10 295.07 C 731.54 299.62 725.86 302.65 721.92 300.07 C 717.18 297.56 717.64 289.90 722.46 287.72 Z" />
<path fill="#000000" d=" M 732.48 287.02 C 734.39 286.98 736.31 286.98 738.24 286.98 C 738.35 290.85 737.93 294.76 738.47 298.60 C 739.42 301.14 743.02 299.81 743.90 297.89 C 744.10 294.93 744.09 291.94 743.91 288.98 C 743.06 288.27 742.19 287.61 741.29 287.00 C 743.01 286.99 744.73 287.00 746.47 287.00 C 746.47 290.96 746.32 294.93 746.70 298.89 C 748.05 299.25 749.39 299.77 750.72 300.25 C 752.18 296.77 751.51 292.81 751.32 289.15 C 750.68 288.88 749.39 288.36 748.74 288.09 C 750.82 287.81 752.99 286.66 755.02 287.74 C 756.57 287.34 758.44 286.27 759.59 288.00 C 759.51 288.59 759.35 289.77 759.27 290.36 C 757.75 289.46 756.34 288.23 754.55 287.93 C 754.24 291.61 753.94 295.37 754.44 299.05 C 755.38 299.73 756.35 300.38 757.35 301.00 C 752.87 301.49 748.39 300.01 743.97 300.99 L 744.03 299.08 C 741.96 300.48 739.07 302.07 736.81 300.12 C 734.83 296.66 736.15 292.45 735.68 288.67 C 734.59 288.13 733.53 287.58 732.48 287.02 Z" />
<path fill="#000000" d=" M 794.49 287.82 C 799.12 284.91 805.57 289.67 804.36 294.95 C 803.94 299.89 797.43 302.89 793.56 299.65 C 789.44 296.83 790.16 290.07 794.49 287.82 Z" />
<path fill="#000000" d=" M 805.35 288.15 C 807.06 287.74 808.76 287.34 810.48 286.95 L 811.43 288.40 C 811.76 288.39 812.43 288.37 812.76 288.36 C 809.29 290.35 811.11 294.79 810.75 298.03 C 810.46 299.67 812.57 300.00 813.44 301.00 C 810.81 301.00 808.19 301.01 805.57 301.00 C 806.13 300.57 807.24 299.72 807.79 299.29 C 808.20 295.98 808.08 292.58 807.85 289.25 C 807.22 288.98 805.97 288.42 805.35 288.15 Z" />
<path fill="#000000" d=" M 813.90 287.46 C 815.74 286.10 817.94 287.64 819.43 288.78 C 821.55 287.39 824.58 285.95 826.77 288.07 C 828.59 291.38 827.27 295.37 827.81 298.96 C 828.64 299.69 829.51 300.36 830.44 301.00 C 827.82 301.01 825.20 301.00 822.59 301.00 C 826.87 299.05 825.03 293.69 825.07 289.99 C 824.80 286.67 820.75 288.26 819.23 289.76 C 819.26 292.87 819.11 295.99 819.32 299.10 C 819.99 299.58 821.33 300.53 822.00 301.00 C 819.26 301.00 816.53 301.01 813.82 300.99 C 814.53 300.57 815.96 299.74 816.67 299.32 C 816.11 295.44 818.82 289.23 813.90 287.46 Z" />
<path fill="#000000" d=" M 835.23 300.71 C 829.21 298.82 829.61 288.48 835.82 287.19 C 839.64 285.84 842.63 289.37 843.19 292.80 C 839.76 293.07 836.32 292.95 832.90 293.14 C 833.40 295.52 833.91 298.41 836.35 299.60 C 837.74 300.41 839.31 299.71 840.73 299.36 C 841.46 298.09 842.23 296.84 843.15 295.69 C 842.55 299.29 838.83 302.07 835.23 300.71 Z" />
<path fill="#ffffff" d=" M 245.90 291.74 C 246.93 290.27 247.73 287.80 249.95 288.04 C 251.46 288.79 251.68 290.60 252.31 291.98 C 250.17 292.00 248.03 291.96 245.90 291.74 Z" />
<path fill="#ffffff" d=" M 305.00 287.99 C 308.33 287.43 309.31 291.52 308.70 294.01 C 308.35 296.49 304.57 296.70 303.59 294.55 C 302.59 292.49 302.31 288.89 305.00 287.99 Z" />
<path fill="#ffffff" d=" M 348.44 289.65 C 349.94 288.38 351.72 287.75 353.67 288.15 C 354.17 292.07 354.05 296.03 353.87 299.97 C 352.24 300.11 350.60 300.22 348.99 299.93 C 347.85 296.70 348.73 293.04 348.44 289.65 Z" />
<path fill="#ffffff" d=" M 389.07 291.90 C 389.84 290.30 390.71 287.75 392.94 288.00 C 395.21 287.79 395.64 290.37 396.32 291.92 C 393.90 292.01 391.48 292.01 389.07 291.90 Z" />
<path fill="#ffffff" d=" M 431.02 288.02 C 435.90 287.59 436.66 294.11 435.72 297.60 C 435.18 300.50 430.98 300.78 429.67 298.30 C 427.76 295.32 426.97 289.52 431.02 288.02 Z" />
<path fill="#ffffff" d=" M 445.43 288.48 C 447.01 288.63 449.12 287.38 450.38 288.67 C 451.20 292.28 450.63 296.07 450.69 299.76 C 448.93 300.37 447.13 300.48 445.35 299.89 C 445.15 296.09 445.18 292.28 445.43 288.48 Z" />
<path fill="#ffffff" d=" M 489.44 289.64 C 490.98 288.45 492.74 287.72 494.71 288.19 C 495.15 292.09 495.06 296.02 494.85 299.93 C 493.14 300.10 491.41 300.13 489.70 300.09 C 489.34 296.62 489.48 293.12 489.44 289.64 Z" />
<path fill="#ffffff" d=" M 535.36 291.93 C 536.14 290.35 536.75 287.90 538.99 288.00 C 541.31 287.61 541.87 290.32 542.54 291.93 C 540.14 292.01 537.74 292.01 535.36 291.93 Z" />
<path fill="#ffffff" d=" M 581.10 288.14 C 586.21 287.10 587.50 294.31 586.09 297.90 C 585.25 300.85 580.94 300.53 579.88 297.89 C 578.37 294.98 577.60 289.90 581.10 288.14 Z" />
<path fill="#ffffff" d=" M 632.05 288.01 C 636.89 287.63 637.64 294.08 636.74 297.56 C 636.21 300.49 631.97 300.80 630.66 298.29 C 628.75 295.30 627.97 289.48 632.05 288.01 Z" />
<path fill="#ffffff" d=" M 674.10 288.14 C 678.00 287.05 679.82 291.89 679.58 294.99 C 680.09 297.84 677.47 301.38 674.44 299.60 C 671.28 297.05 670.13 290.38 674.10 288.14 Z" />
<path fill="#ffffff" d=" M 724.07 288.00 C 728.77 287.42 729.85 293.46 729.17 296.94 C 729.05 299.82 725.04 301.20 723.37 298.79 C 720.92 295.95 720.14 289.93 724.07 288.00 Z" />
<path fill="#ffffff" d=" M 796.05 288.15 C 800.00 287.01 801.85 291.93 801.58 295.06 C 802.06 297.89 799.43 301.37 796.45 299.60 C 793.29 297.05 792.15 290.46 796.05 288.15 Z" />
<path fill="#ffffff" d=" M 832.58 291.70 C 833.73 290.25 834.64 287.59 836.99 288.00 C 839.01 288.09 839.30 290.45 840.19 291.84 C 837.65 292.04 835.09 292.05 832.58 291.70 Z" />
<path fill="#ffffff" d=" M 232.45 289.63 C 233.81 288.64 235.45 287.00 236.74 289.07 C 238.93 291.78 238.86 296.14 237.00 298.99 C 235.65 300.87 233.54 299.48 232.43 298.16 C 232.47 295.32 232.46 292.47 232.45 289.63 Z" />
<path fill="#ffffff" d=" M 302.38 301.28 C 305.65 300.67 309.06 300.92 312.29 301.68 C 312.75 307.47 304.72 308.59 301.46 305.11 C 301.33 303.74 301.63 302.46 302.38 301.28 Z" />
<path fill="#000000" d=" M 703.64 308.22 C 703.04 307.17 702.04 305.27 703.98 304.87 C 705.05 305.66 706.04 306.59 707.04 307.48 C 706.19 307.67 704.49 308.03 703.64 308.22 Z" />
</svg>
